solid spina conica 2
facet normal 0.0 0.0 -1.0
  outer loop
    vertex -7.727406610312546 2.0705523608201672 0.0
    vertex -7.727406610312546 -2.0705523608201646 0.0
    vertex -7.999999999999999 4.898587196589412e-16 0.0
  endloop
endfacet
facet normal 0.0 0.0 -1.0
  outer loop
    vertex -7.727406610312546 -2.0705523608201646 0.0
    vertex -7.727406610312546 2.0705523608201672 0.0
    vertex -6.928203230275508 3.9999999999999996 0.0
  endloop
endfacet
facet normal 0.0 0.0 -1.0
  outer loop
    vertex -7.727406610312546 -2.0705523608201646 0.0
    vertex -6.928203230275508 3.9999999999999996 0.0
    vertex -6.928203230275509 -3.999999999999997 0.0
  endloop
endfacet
facet normal 0.0 0.0 -1.0
  outer loop
    vertex -6.928203230275509 -3.999999999999997 0.0
    vertex -6.928203230275508 3.9999999999999996 0.0
    vertex -5.656854249492381 -5.656854249492379 0.0
  endloop
endfacet
facet normal 0.0 0.0 -1.0
  outer loop
    vertex -5.656854249492381 -5.656854249492379 0.0
    vertex -6.928203230275508 3.9999999999999996 0.0
    vertex -5.65685424949238 5.65685424949238 0.0
  endloop
endfacet
facet normal 0.0 0.0 -1.0
  outer loop
    vertex -5.656854249492381 -5.656854249492379 0.0
    vertex -5.65685424949238 5.65685424949238 0.0
    vertex -4.000000000000003 -6.928203230275506 0.0
  endloop
endfacet
facet normal 0.0 0.0 -1.0
  outer loop
    vertex -4.000000000000003 -6.928203230275506 0.0
    vertex -5.65685424949238 5.65685424949238 0.0
    vertex -3.999999999999999 6.928203230275508 0.0
  endloop
endfacet
facet normal 0.0 0.0 -1.0
  outer loop
    vertex -4.000000000000003 -6.928203230275506 0.0
    vertex -3.999999999999999 6.928203230275508 0.0
    vertex -3.9999999999999996 -7.347880794884117e-16 0.0
  endloop
endfacet
facet normal 0.0 0.0 -1.0
  outer loop
    vertex -3.9999999999999996 -7.347880794884117e-16 0.0
    vertex -3.999999999999999 6.928203230275508 0.0
    vertex -3.8637033051562732 1.035276180410081 0.0
  endloop
endfacet
facet normal 0.0 0.0 -1.0
  outer loop
    vertex -3.8637033051562732 1.035276180410081 0.0
    vertex -3.999999999999999 6.928203230275508 0.0
    vertex -2.070552360820166 7.727406610312544 0.0
  endloop
endfacet
facet normal 0.0 0.0 -1.0
  outer loop
    vertex -3.8637033051562732 1.035276180410081 0.0
    vertex -2.070552360820166 7.727406610312544 0.0
    vertex -3.464101615137756 1.9999999999999967 0.0
  endloop
endfacet
facet normal 0.0 0.0 -1.0
  outer loop
    vertex -3.464101615137756 1.9999999999999967 0.0
    vertex -2.070552360820166 7.727406610312544 0.0
    vertex -2.8284271247461903 2.8284271247461885 0.0
  endloop
endfacet
facet normal 0.0 0.0 -1.0
  outer loop
    vertex -2.8284271247461903 2.8284271247461885 0.0
    vertex -2.070552360820166 7.727406610312544 0.0
    vertex -2.0000000000000018 3.4641016151377526 0.0
  endloop
endfacet
facet normal 0.0 0.0 -1.0
  outer loop
    vertex -2.0000000000000018 3.4641016151377526 0.0
    vertex -2.070552360820166 7.727406610312544 0.0
    vertex 0.0 7.999999999999998 0.0
  endloop
endfacet
facet normal 0.0 0.0 -1.0
  outer loop
    vertex -2.0000000000000018 3.4641016151377526 0.0
    vertex 0.0 7.999999999999998 0.0
    vertex -1.035276180410086 3.8637033051562715 0.0
  endloop
endfacet
facet normal 0.0 0.0 -1.0
  outer loop
    vertex -1.035276180410086 3.8637033051562715 0.0
    vertex 0.0 7.999999999999998 0.0
    vertex 0.0 3.999999999999999 0.0
  endloop
endfacet
facet normal 0.0 0.0 -1.0
  outer loop
    vertex 0.0 3.999999999999999 0.0
    vertex 0.0 7.999999999999998 0.0
    vertex 2.070552360820172 7.727406610312543 0.0
  endloop
endfacet
facet normal 0.0 0.0 -1.0
  outer loop
    vertex 0.0 3.999999999999999 0.0
    vertex 2.070552360820172 7.727406610312543 0.0
    vertex 1.035276180410083 3.863703305156272 0.0
  endloop
endfacet
facet normal 0.0 0.0 -1.0
  outer loop
    vertex 1.035276180410083 3.863703305156272 0.0
    vertex 2.070552360820172 7.727406610312543 0.0
    vertex 1.9999999999999996 3.464101615137754 0.0
  endloop
endfacet
facet normal 0.0 0.0 -1.0
  outer loop
    vertex 1.9999999999999996 3.464101615137754 0.0
    vertex 2.070552360820172 7.727406610312543 0.0
    vertex 2.82842712474619 2.82842712474619 0.0
  endloop
endfacet
facet normal 0.0 0.0 -1.0
  outer loop
    vertex 2.82842712474619 2.82842712474619 0.0
    vertex 2.070552360820172 7.727406610312543 0.0
    vertex 4.0000000000000036 6.928203230275505 0.0
  endloop
endfacet
facet normal 0.0 0.0 -1.0
  outer loop
    vertex 2.82842712474619 2.82842712474619 0.0
    vertex 4.0000000000000036 6.928203230275505 0.0
    vertex 3.464101615137754 1.9999999999999998 0.0
  endloop
endfacet
facet normal 0.0 0.0 -1.0
  outer loop
    vertex 3.464101615137754 1.9999999999999998 0.0
    vertex 4.0000000000000036 6.928203230275505 0.0
    vertex 3.863703305156273 1.0352761804100836 0.0
  endloop
endfacet
facet normal 0.0 0.0 -1.0
  outer loop
    vertex 3.863703305156273 1.0352761804100836 0.0
    vertex 4.0000000000000036 6.928203230275505 0.0
    vertex 3.9999999999999996 2.449293598294706e-16 0.0
  endloop
endfacet
facet normal 0.0 0.0 -1.0
  outer loop
    vertex -4.000000000000003 -6.928203230275506 0.0
    vertex -3.863703305156272 -1.0352761804100858 0.0
    vertex -2.070552360820168 -7.727406610312544 0.0
  endloop
endfacet
facet normal 0.0 0.0 -1.0
  outer loop
    vertex -3.863703305156272 -1.0352761804100858 0.0
    vertex -4.000000000000003 -6.928203230275506 0.0
    vertex -3.9999999999999996 -7.347880794884117e-16 0.0
  endloop
endfacet
facet normal 0.0 0.0 -1.0
  outer loop
    vertex -2.070552360820168 -7.727406610312544 0.0
    vertex -3.863703305156272 -1.0352761804100858 0.0
    vertex -3.464101615137753 -2.0000000000000013 0.0
  endloop
endfacet
facet normal 0.0 0.0 -1.0
  outer loop
    vertex -2.070552360820168 -7.727406610312544 0.0
    vertex -3.464101615137753 -2.0000000000000013 0.0
    vertex -2.8284271247461885 -2.828427124746191 0.0
  endloop
endfacet
facet normal 0.0 0.0 -1.0
  outer loop
    vertex -2.070552360820168 -7.727406610312544 0.0
    vertex -2.8284271247461885 -2.828427124746191 0.0
    vertex -1.999999999999999 -3.4641016151377544 0.0
  endloop
endfacet
facet normal 0.0 0.0 -1.0
  outer loop
    vertex -2.070552360820168 -7.727406610312544 0.0
    vertex -1.999999999999999 -3.4641016151377544 0.0
    vertex -9.797174393178824e-16 -7.999999999999998 0.0
  endloop
endfacet
facet normal 0.0 0.0 -1.0
  outer loop
    vertex -9.797174393178824e-16 -7.999999999999998 0.0
    vertex -1.999999999999999 -3.4641016151377544 0.0
    vertex -1.0352761804100814 -3.863703305156273 0.0
  endloop
endfacet
facet normal 0.0 0.0 -1.0
  outer loop
    vertex -9.797174393178824e-16 -7.999999999999998 0.0
    vertex -1.0352761804100814 -3.863703305156273 0.0
    vertex 4.898587196589412e-16 -3.999999999999999 0.0
  endloop
endfacet
facet normal 0.0 0.0 -1.0
  outer loop
    vertex -9.797174393178824e-16 -7.999999999999998 0.0
    vertex 4.898587196589412e-16 -3.999999999999999 0.0
    vertex 2.070552360820163 -7.727406610312546 0.0
  endloop
endfacet
facet normal 0.0 0.0 -1.0
  outer loop
    vertex 2.070552360820163 -7.727406610312546 0.0
    vertex 4.898587196589412e-16 -3.999999999999999 0.0
    vertex 1.035276180410084 -3.863703305156272 0.0
  endloop
endfacet
facet normal 0.0 0.0 -1.0
  outer loop
    vertex 2.070552360820163 -7.727406610312546 0.0
    vertex 1.035276180410084 -3.863703305156272 0.0
    vertex 2.0000000000000013 -3.464101615137753 0.0
  endloop
endfacet
facet normal 0.0 0.0 -1.0
  outer loop
    vertex 2.070552360820163 -7.727406610312546 0.0
    vertex 2.0000000000000013 -3.464101615137753 0.0
    vertex 2.8284271247461903 -2.8284271247461894 0.0
  endloop
endfacet
facet normal 0.0 0.0 -1.0
  outer loop
    vertex 2.070552360820163 -7.727406610312546 0.0
    vertex 2.8284271247461903 -2.8284271247461894 0.0
    vertex 3.999999999999998 -6.928203230275509 0.0
  endloop
endfacet
facet normal 0.0 0.0 -1.0
  outer loop
    vertex 3.999999999999998 -6.928203230275509 0.0
    vertex 2.8284271247461903 -2.8284271247461894 0.0
    vertex 3.4641016151377544 -1.9999999999999984 0.0
  endloop
endfacet
facet normal 0.0 0.0 -1.0
  outer loop
    vertex 3.999999999999998 -6.928203230275509 0.0
    vertex 3.4641016151377544 -1.9999999999999984 0.0
    vertex 3.863703305156273 -1.0352761804100823 0.0
  endloop
endfacet
facet normal 0.0 0.0 -1.0
  outer loop
    vertex 3.999999999999998 -6.928203230275509 0.0
    vertex 3.863703305156273 -1.0352761804100823 0.0
    vertex 3.9999999999999996 2.449293598294706e-16 0.0
  endloop
endfacet
facet normal 0.0 0.0 -1.0
  outer loop
    vertex 3.999999999999998 -6.928203230275509 0.0
    vertex 3.9999999999999996 2.449293598294706e-16 0.0
    vertex 5.656854249492377 -5.656854249492382 0.0
  endloop
endfacet
facet normal 0.0 0.0 -1.0
  outer loop
    vertex 5.656854249492377 -5.656854249492382 0.0
    vertex 3.9999999999999996 2.449293598294706e-16 0.0
    vertex 4.0000000000000036 6.928203230275505 0.0
  endloop
endfacet
facet normal 0.0 0.0 -1.0
  outer loop
    vertex 5.656854249492377 -5.656854249492382 0.0
    vertex 4.0000000000000036 6.928203230275505 0.0
    vertex 5.656854249492381 5.656854249492377 0.0
  endloop
endfacet
facet normal 0.0 0.0 -1.0
  outer loop
    vertex 5.656854249492377 -5.656854249492382 0.0
    vertex 5.656854249492381 5.656854249492377 0.0
    vertex 6.928203230275506 -4.000000000000003 0.0
  endloop
endfacet
facet normal 0.0 0.0 -1.0
  outer loop
    vertex 6.928203230275506 -4.000000000000003 0.0
    vertex 5.656854249492381 5.656854249492377 0.0
    vertex 6.928203230275512 3.9999999999999933 0.0
  endloop
endfacet
facet normal 0.0 0.0 -1.0
  outer loop
    vertex 6.928203230275506 -4.000000000000003 0.0
    vertex 6.928203230275512 3.9999999999999933 0.0
    vertex 7.727406610312544 -2.0705523608201717 0.0
  endloop
endfacet
facet normal 0.0 0.0 -1.0
  outer loop
    vertex 7.727406610312544 -2.0705523608201717 0.0
    vertex 6.928203230275512 3.9999999999999933 0.0
    vertex 7.7274066103125465 2.070552360820162 0.0
  endloop
endfacet
facet normal 0.0 0.0 -1.0
  outer loop
    vertex 7.727406610312544 -2.0705523608201717 0.0
    vertex 7.7274066103125465 2.070552360820162 0.0
    vertex 7.999999999999999 -1.4695761589768234e-15 0.0
  endloop
endfacet
facet normal -0.964501891968706 0.25517377271956754 0.0679885733402987
  outer loop
    vertex -4.425738260270103 1.23508815890676 50.0
    vertex -7.999999999999999 4.898587196589412e-16 0.0
    vertex -4.5819218879999974 0.03262956800000166 50.0
  endloop
endfacet
facet normal -0.9637265218372633 0.25811158869989126 0.06789402688211105
  outer loop
    vertex -7.727406610312546 2.0705523608201672 0.0
    vertex -7.999999999999999 4.898587196589412e-16 0.0
    vertex -4.425738260270103 1.23508815890676 50.0
  endloop
endfacet
facet normal -0.9976739220618288 3.055602180546133e-05 0.06816703238441212
  outer loop
    vertex -4.5819218879999974 0.03262956800000166 50.0
    vertex -7.727406610312546 -2.0705523608201646 0.0
    vertex -4.425738260270103 -1.1698290229067565 50.0
  endloop
endfacet
facet normal -0.9976739220618288 3.055602180546133e-05 0.06816703238441212
  outer loop
    vertex -4.5819218879999974 0.03262956800000166 50.0
    vertex -7.999999999999999 4.898587196589412e-16 0.0
    vertex -7.727406610312546 -2.0705523608201646 0.0
  endloop
endfacet
facet normal -0.9645050542881244 -0.25510859646415535 0.06818800673689693
  outer loop
    vertex -4.425738260270103 -1.1698290229067565 50.0
    vertex -6.928203230275509 -3.999999999999997 0.0
    vertex -3.967831033204561 -2.2903420479999963 50.0
  endloop
endfacet
facet normal -0.9645050542881244 -0.25510859646415535 0.06818800673689693
  outer loop
    vertex -4.425738260270103 -1.1698290229067565 50.0
    vertex -7.727406610312546 -2.0705523608201646 0.0
    vertex -6.928203230275509 -3.999999999999997 0.0
  endloop
endfacet
facet normal -0.866784106033127 -0.49401475975118603 0.06807885630892128
  outer loop
    vertex -3.967831033204561 -2.2903420479999963 50.0
    vertex -5.656854249492381 -5.656854249492379 0.0
    vertex -3.239405827600408 -3.252548396354942 50.0
  endloop
endfacet
facet normal -0.866784106033127 -0.49401475975118603 0.06807885630892128
  outer loop
    vertex -3.967831033204561 -2.2903420479999963 50.0
    vertex -6.928203230275509 -3.999999999999997 0.0
    vertex -5.656854249492381 -5.656854249492379 0.0
  endloop
endfacet
facet normal -0.5036653757099986 -0.8612222347062385 0.06795183410695133
  outer loop
    vertex -2.2901036174400033 -3.9908752954523745 50.0
    vertex -5.656854249492381 -5.656854249492379 0.0
    vertex -4.000000000000003 -6.928203230275506 0.0
  endloop
endfacet
facet normal -0.7100687808744206 -0.7008380823020239 0.0680316751428
  outer loop
    vertex -3.239405827600408 -3.252548396354942 50.0
    vertex -5.656854249492381 -5.656854249492379 0.0
    vertex -2.2901036174400033 -3.9908752954523745 50.0
  endloop
endfacet
facet normal -0.2613236550180966 -0.9628708982617605 0.06774644351235884
  outer loop
    vertex -1.1846177795497022 -4.4550069872617 50.0
    vertex -4.000000000000003 -6.928203230275506 0.0
    vertex -2.070552360820168 -7.727406610312544 0.0
  endloop
endfacet
facet normal -0.5036653757099986 -0.8612222347062385 0.06795183410695133
  outer loop
    vertex -2.2901036174400033 -3.9908752954523745 50.0
    vertex -4.000000000000003 -6.928203230275506 0.0
    vertex -1.1846177795497022 -4.4550069872617 50.0
  endloop
endfacet
facet normal 2.6356818402416362e-05 -0.9977115064646588 0.06761471121981621
  outer loop
    vertex 0.001714653119997746 -4.613313664 50.0
    vertex -2.070552360820168 -7.727406610312544 0.0
    vertex -9.797174393178824e-16 -7.999999999999998 0.0
  endloop
endfacet
facet normal -0.2613236550180966 -0.9628708982617605 0.06774644351235884
  outer loop
    vertex -1.1846177795497022 -4.4550069872617 50.0
    vertex -2.070552360820168 -7.727406610312544 0.0
    vertex 0.001714653119997746 -4.613313664 50.0
  endloop
endfacet
facet normal 0.2613708370823105 -0.9628687313213374 0.06759505726405274
  outer loop
    vertex 1.1880470857896963 -4.455006987261702 50.0
    vertex -9.797174393178824e-16 -7.999999999999998 0.0
    vertex 2.070552360820163 -7.727406610312546 0.0
  endloop
endfacet
facet normal 2.6356818402416362e-05 -0.9977115064646588 0.06761471121981621
  outer loop
    vertex 0.001714653119997746 -4.613313664 50.0
    vertex -9.797174393178824e-16 -7.999999999999998 0.0
    vertex 1.1880470857896963 -4.455006987261702 50.0
  endloop
endfacet
facet normal 0.5036987499107753 -0.8612235956550484 0.0676866872088751
  outer loop
    vertex 2.293532923679998 -3.990875295452377 50.0
    vertex 2.070552360820163 -7.727406610312546 0.0
    vertex 3.999999999999998 -6.928203230275509 0.0
  endloop
endfacet
facet normal 0.2613708370823105 -0.9628687313213374 0.06759505726405274
  outer loop
    vertex 1.1880470857896963 -4.455006987261702 50.0
    vertex 2.070552360820163 -7.727406610312546 0.0
    vertex 2.293532923679998 -3.990875295452377 50.0
  endloop
endfacet
facet normal 0.7099517832393404 -0.7009613396161608 0.06798283488350448
  outer loop
    vertex 3.2428351338404013 -3.2525483963549457 50.0
    vertex 3.999999999999998 -6.928203230275509 0.0
    vertex 5.656854249492377 -5.656854249492382 0.0
  endloop
endfacet
facet normal 0.5036987499107753 -0.8612235956550484 0.0676866872088751
  outer loop
    vertex 2.293532923679998 -3.990875295452377 50.0
    vertex 3.999999999999998 -6.928203230275509 0.0
    vertex 3.2428351338404013 -3.2525483963549457 50.0
  endloop
endfacet
facet normal 0.7099517832393404 -0.7009613396161608 0.06798283488350448
  outer loop
    vertex 3.2428351338404013 -3.2525483963549457 50.0
    vertex 5.656854249492377 -5.656854249492382 0.0
    vertex 6.928203230275506 -4.000000000000003 0.0
  endloop
endfacet
facet normal 0.8667870119277383 -0.49398618916120424 0.06824896241976025
  outer loop
    vertex 3.9712603394445525 -2.2903420479999985 50.0
    vertex 3.2428351338404013 -3.2525483963549457 50.0
    vertex 6.928203230275506 -4.000000000000003 0.0
  endloop
endfacet
facet normal 0.963681632804169 -0.2582081365984191 0.06816354443735097
  outer loop
    vertex 7.727406610312544 -2.0705523608201717 0.0
    vertex 3.9712603394445525 -2.2903420479999985 50.0
    vertex 6.928203230275506 -4.000000000000003 0.0
  endloop
endfacet
facet normal 0.9645113272526864 -0.2550671746789601 0.06825420135459777
  outer loop
    vertex 4.429167566510099 -1.1698290229067607 50.0
    vertex 3.9712603394445525 -2.2903420479999985 50.0
    vertex 7.727406610312544 -2.0705523608201717 0.0
  endloop
endfacet
facet normal 0.9976775755146929 -4.0305678154158786e-05 0.06811353529641674
  outer loop
    vertex 7.999999999999999 -1.4695761589768234e-15 0.0
    vertex 4.429167566510099 -1.1698290229067607 50.0
    vertex 7.727406610312544 -2.0705523608201717 0.0
  endloop
endfacet
facet normal 0.9976785749681298 7.685393343379877e-05 0.06809886300838533
  outer loop
    vertex 4.585351194239998 0.03262956800000055 50.0
    vertex 4.429167566510099 -1.1698290229067607 50.0
    vertex 7.999999999999999 -1.4695761589768234e-15 0.0
  endloop
endfacet
facet normal 0.9637194537873212 0.2581349181848511 0.06790565812631325
  outer loop
    vertex 7.7274066103125465 2.070552360820162 0.0
    vertex 4.585351194239998 0.03262956800000055 50.0
    vertex 7.999999999999999 -1.4695761589768234e-15 0.0
  endloop
endfacet
facet normal 0.9637194537873212 0.2581349181848511 0.06790565812631325
  outer loop
    vertex 7.7274066103125465 2.070552360820162 0.0
    vertex 4.4291675665101025 1.235088158906758 50.0
    vertex 4.585351194239998 0.03262956800000055 50.0
  endloop
endfacet
facet normal 0.8641092622371012 0.4987489542693455 0.06756229370948562
  outer loop
    vertex 6.928203230275512 3.9999999999999933 0.0
    vertex 4.4291675665101025 1.235088158906758 50.0
    vertex 7.7274066103125465 2.070552360820162 0.0
  endloop
endfacet
facet normal 0.8641092622371012 0.4987489542693455 0.06756229370948562
  outer loop
    vertex 6.928203230275512 3.9999999999999933 0.0
    vertex 3.971260339444556 2.3556011839999966 50.0
    vertex 4.4291675665101025 1.235088158906758 50.0
  endloop
endfacet
facet normal 0.7056460158658734 0.7053833407757951 0.067067449993257
  outer loop
    vertex 5.656854249492381 5.656854249492377 0.0
    vertex 3.971260339444556 2.3556011839999966 50.0
    vertex 6.928203230275512 3.9999999999999933 0.0
  endloop
endfacet
facet normal 0.7056460158658734 0.7053833407757951 0.067067449993257
  outer loop
    vertex 5.656854249492381 5.656854249492377 0.0
    vertex 3.2428351338404036 3.3178075323549425 50.0
    vertex 3.971260339444556 2.3556011839999966 50.0
  endloop
endfacet
facet normal 0.5036612343849239 0.861314888976366 0.06679837576981207
  outer loop
    vertex 2.293532923680001 4.056134431452374 50.0
    vertex 5.656854249492381 5.656854249492377 0.0
    vertex 4.0000000000000036 6.928203230275505 0.0
  endloop
endfacet
facet normal 0.7100633999023233 0.7009359729570559 0.06707257214315555
  outer loop
    vertex 3.2428351338404036 3.3178075323549425 50.0
    vertex 5.656854249492381 5.656854249492377 0.0
    vertex 2.293532923680001 4.056134431452374 50.0
  endloop
endfacet
facet normal 0.26132356315451416 0.962959367000878 0.0664774611842007
  outer loop
    vertex 1.1880470857897023 4.520266123261702 50.0
    vertex 4.0000000000000036 6.928203230275505 0.0
    vertex 2.070552360820172 7.727406610312543 0.0
  endloop
endfacet
facet normal 0.5036612343849239 0.861314888976366 0.06679837576981207
  outer loop
    vertex 2.293532923680001 4.056134431452374 50.0
    vertex 4.0000000000000036 6.928203230275505 0.0
    vertex 1.1880470857897023 4.520266123261702 50.0
  endloop
endfacet
facet normal -2.0559768556243628e-05 0.9977985179621489 0.06631830162055581
  outer loop
    vertex 0.0017146531199983353 4.678572799999999 50.0
    vertex 2.070552360820172 7.727406610312543 0.0
    vertex 0.0 7.999999999999998 0.0
  endloop
endfacet
facet normal 0.26132356315451416 0.962959367000878 0.0664774611842007
  outer loop
    vertex 1.1880470857897023 4.520266123261702 50.0
    vertex 2.070552360820172 7.727406610312543 0.0
    vertex 0.0017146531199983353 4.678572799999999 50.0
  endloop
endfacet
facet normal -0.26135929322957474 0.9629576511386935 0.06636175070013937
  outer loop
    vertex -1.1846177795497017 4.520266123261702 50.0
    vertex 0.0 7.999999999999998 0.0
    vertex -2.070552360820166 7.727406610312544 0.0
  endloop
endfacet
facet normal -2.0559768556243628e-05 0.9977985179621489 0.06631830162055581
  outer loop
    vertex 0.0017146531199983353 4.678572799999999 50.0
    vertex 0.0 7.999999999999998 0.0
    vertex -1.1846177795497017 4.520266123261702 50.0
  endloop
endfacet
facet normal -0.8667735895481592 0.4940898984325738 0.06766621556351736
  outer loop
    vertex -3.967831033204559 2.3556011839999993 50.0
    vertex -7.727406610312546 2.0705523608201672 0.0
    vertex -4.425738260270103 1.23508815890676 50.0
  endloop
endfacet
facet normal -0.864121686637159 0.4987376046075447 0.06748712791103317
  outer loop
    vertex -6.928203230275508 3.9999999999999996 0.0
    vertex -7.727406610312546 2.0705523608201672 0.0
    vertex -3.967831033204559 2.3556011839999993 50.0
  endloop
endfacet
facet normal -0.864121686637159 0.4987376046075447 0.06748712791103317
  outer loop
    vertex -6.928203230275508 3.9999999999999996 0.0
    vertex -3.967831033204559 2.3556011839999993 50.0
    vertex -3.2394058276004065 3.317807532354944 50.0
  endloop
endfacet
facet normal -0.7055767349431952 0.7054480778190116 0.06711542749891182
  outer loop
    vertex -5.65685424949238 5.65685424949238 0.0
    vertex -6.928203230275508 3.9999999999999996 0.0
    vertex -3.2394058276004065 3.317807532354944 50.0
  endloop
endfacet
facet normal -0.7099360895795841 0.7010603451718035 0.06712034818175823
  outer loop
    vertex -3.2394058276004065 3.317807532354944 50.0
    vertex -3.999999999999999 6.928203230275508 0.0
    vertex -5.65685424949238 5.65685424949238 0.0
  endloop
endfacet
facet normal -0.5036835534647053 0.8613170466435361 0.06660197542433875
  outer loop
    vertex -2.2901036174400002 4.056134431452378 50.0
    vertex -3.999999999999999 6.928203230275508 0.0
    vertex -3.2394058276004065 3.317807532354944 50.0
  endloop
endfacet
facet normal -0.5036835534647053 0.8613170466435361 0.06660197542433875
  outer loop
    vertex -2.2901036174400002 4.056134431452378 50.0
    vertex -2.070552360820166 7.727406610312544 0.0
    vertex -3.999999999999999 6.928203230275508 0.0
  endloop
endfacet
facet normal -0.26135929322957474 0.9629576511386935 0.06636175070013937
  outer loop
    vertex -1.1846177795497017 4.520266123261702 50.0
    vertex -2.070552360820166 7.727406610312544 0.0
    vertex -2.2901036174400002 4.056134431452378 50.0
  endloop
endfacet
facet normal -0.2588190451025207 -0.9659258262890682 0.0
  outer loop
    vertex 1.035276180410083 3.863703305156272 50.0
    vertex 0.0 3.999999999999999 0.0
    vertex 1.035276180410083 3.863703305156272 0.0
  endloop
endfacet
facet normal 1.425777583303505e-16 -1.0 0.0
  outer loop
    vertex 0.0 3.999999999999999 0.0
    vertex 1.035276180410083 3.863703305156272 50.0
    vertex 0.0 3.999999999999999 50.0
  endloop
endfacet
facet normal 1.425777583303505e-16 -1.0 0.0
  outer loop
    vertex 0.0 3.999999999999999 50.0
    vertex -1.035276180410086 3.8637033051562715 0.0
    vertex 0.0 3.999999999999999 0.0
  endloop
endfacet
facet normal 0.2588190451025213 -0.9659258262890682 0.0
  outer loop
    vertex -1.035276180410086 3.8637033051562715 0.0
    vertex 0.0 3.999999999999999 50.0
    vertex -1.035276180410086 3.8637033051562715 50.0
  endloop
endfacet
facet normal 0.2588190451025213 -0.9659258262890682 0.0
  outer loop
    vertex -1.035276180410086 3.8637033051562715 50.0
    vertex -2.0000000000000018 3.4641016151377526 0.0
    vertex -1.035276180410086 3.8637033051562715 0.0
  endloop
endfacet
facet normal 0.5000000000000003 -0.8660254037844386 0.0
  outer loop
    vertex -2.0000000000000018 3.4641016151377526 0.0
    vertex -1.035276180410086 3.8637033051562715 50.0
    vertex -2.0000000000000018 3.4641016151377526 50.0
  endloop
endfacet
facet normal 0.5000000000000003 -0.8660254037844386 0.0
  outer loop
    vertex -2.0000000000000018 3.4641016151377526 50.0
    vertex -2.8284271247461903 2.8284271247461885 0.0
    vertex -2.0000000000000018 3.4641016151377526 0.0
  endloop
endfacet
facet normal 0.7071067811865477 -0.7071067811865474 0.0
  outer loop
    vertex -2.8284271247461903 2.8284271247461885 0.0
    vertex -2.0000000000000018 3.4641016151377526 50.0
    vertex -2.8284271247461903 2.8284271247461885 50.0
  endloop
endfacet
facet normal 0.7071067811865477 -0.7071067811865474 0.0
  outer loop
    vertex -2.8284271247461903 2.8284271247461885 0.0
    vertex -3.464101615137756 1.9999999999999967 50.0
    vertex -3.464101615137756 1.9999999999999967 0.0
  endloop
endfacet
facet normal 0.8660254037844389 -0.4999999999999997 0.0
  outer loop
    vertex -3.464101615137756 1.9999999999999967 50.0
    vertex -2.8284271247461903 2.8284271247461885 0.0
    vertex -2.8284271247461903 2.8284271247461885 50.0
  endloop
endfacet
facet normal 0.8660254037844389 -0.4999999999999997 0.0
  outer loop
    vertex -3.464101615137756 1.9999999999999967 0.0
    vertex -3.8637033051562732 1.035276180410081 50.0
    vertex -3.8637033051562732 1.035276180410081 0.0
  endloop
endfacet
facet normal 0.9659258262890684 -0.2588190451025203 0.0
  outer loop
    vertex -3.8637033051562732 1.035276180410081 50.0
    vertex -3.464101615137756 1.9999999999999967 0.0
    vertex -3.464101615137756 1.9999999999999967 50.0
  endloop
endfacet
facet normal 0.9659258262890684 -0.2588190451025203 0.0
  outer loop
    vertex -3.8637033051562732 1.035276180410081 0.0
    vertex -3.9999999999999996 -7.347880794884117e-16 50.0
    vertex -3.9999999999999996 -7.347880794884117e-16 0.0
  endloop
endfacet
facet normal 1.0 4.544666046779921e-16 0.0
  outer loop
    vertex -3.9999999999999996 -7.347880794884117e-16 50.0
    vertex -3.8637033051562732 1.035276180410081 0.0
    vertex -3.8637033051562732 1.035276180410081 50.0
  endloop
endfacet
facet normal 1.0 4.544666046779921e-16 0.0
  outer loop
    vertex -3.9999999999999996 -7.347880794884117e-16 0.0
    vertex -3.863703305156272 -1.0352761804100858 50.0
    vertex -3.863703305156272 -1.0352761804100858 0.0
  endloop
endfacet
facet normal 0.965925826289068 0.25881904510252135 0.0
  outer loop
    vertex -3.863703305156272 -1.0352761804100858 50.0
    vertex -3.9999999999999996 -7.347880794884117e-16 0.0
    vertex -3.9999999999999996 -7.347880794884117e-16 50.0
  endloop
endfacet
facet normal 0.965925826289068 0.25881904510252135 0.0
  outer loop
    vertex -3.863703305156272 -1.0352761804100858 0.0
    vertex -3.464101615137753 -2.0000000000000013 50.0
    vertex -3.464101615137753 -2.0000000000000013 0.0
  endloop
endfacet
facet normal 0.8660254037844384 0.5000000000000004 0.0
  outer loop
    vertex -3.464101615137753 -2.0000000000000013 50.0
    vertex -3.863703305156272 -1.0352761804100858 0.0
    vertex -3.863703305156272 -1.0352761804100858 50.0
  endloop
endfacet
facet normal 0.8660254037844384 0.5000000000000004 0.0
  outer loop
    vertex -3.464101615137753 -2.0000000000000013 0.0
    vertex -2.8284271247461885 -2.828427124746191 50.0
    vertex -2.8284271247461885 -2.828427124746191 0.0
  endloop
endfacet
facet normal 0.7071067811865472 0.7071067811865478 0.0
  outer loop
    vertex -2.8284271247461885 -2.828427124746191 50.0
    vertex -3.464101615137753 -2.0000000000000013 0.0
    vertex -3.464101615137753 -2.0000000000000013 50.0
  endloop
endfacet
facet normal 0.7071067811865472 0.7071067811865478 0.0
  outer loop
    vertex -2.8284271247461885 -2.828427124746191 50.0
    vertex -1.999999999999999 -3.4641016151377544 0.0
    vertex -2.8284271247461885 -2.828427124746191 0.0
  endloop
endfacet
facet normal 0.4999999999999996 0.8660254037844389 0.0
  outer loop
    vertex -1.999999999999999 -3.4641016151377544 0.0
    vertex -2.8284271247461885 -2.828427124746191 50.0
    vertex -1.999999999999999 -3.4641016151377544 50.0
  endloop
endfacet
facet normal 0.4999999999999996 0.8660254037844389 0.0
  outer loop
    vertex -1.999999999999999 -3.4641016151377544 50.0
    vertex -1.0352761804100814 -3.863703305156273 0.0
    vertex -1.999999999999999 -3.4641016151377544 0.0
  endloop
endfacet
facet normal 0.25881904510252035 0.9659258262890684 0.0
  outer loop
    vertex -1.0352761804100814 -3.863703305156273 0.0
    vertex -1.999999999999999 -3.4641016151377544 50.0
    vertex -1.0352761804100814 -3.863703305156273 50.0
  endloop
endfacet
facet normal 0.25881904510252035 0.9659258262890684 0.0
  outer loop
    vertex -1.0352761804100814 -3.863703305156273 50.0
    vertex 4.898587196589412e-16 -3.999999999999999 0.0
    vertex -1.0352761804100814 -3.863703305156273 0.0
  endloop
endfacet
facet normal -2.227777473911726e-16 1.0 0.0
  outer loop
    vertex 4.898587196589412e-16 -3.999999999999999 0.0
    vertex -1.0352761804100814 -3.863703305156273 50.0
    vertex 4.898587196589412e-16 -3.999999999999999 50.0
  endloop
endfacet
facet normal -2.227777473911726e-16 1.0 0.0
  outer loop
    vertex 4.898587196589412e-16 -3.999999999999999 50.0
    vertex 1.035276180410084 -3.863703305156272 0.0
    vertex 4.898587196589412e-16 -3.999999999999999 0.0
  endloop
endfacet
facet normal -0.2588190451025208 0.9659258262890682 0.0
  outer loop
    vertex 1.035276180410084 -3.863703305156272 0.0
    vertex 4.898587196589412e-16 -3.999999999999999 50.0
    vertex 1.035276180410084 -3.863703305156272 50.0
  endloop
endfacet
facet normal -0.2588190451025208 0.9659258262890682 0.0
  outer loop
    vertex 1.035276180410084 -3.863703305156272 50.0
    vertex 2.0000000000000013 -3.464101615137753 0.0
    vertex 1.035276180410084 -3.863703305156272 0.0
  endloop
endfacet
facet normal -0.5 0.8660254037844386 0.0
  outer loop
    vertex 2.0000000000000013 -3.464101615137753 0.0
    vertex 1.035276180410084 -3.863703305156272 50.0
    vertex 2.0000000000000013 -3.464101615137753 50.0
  endloop
endfacet
facet normal -0.5 0.8660254037844386 0.0
  outer loop
    vertex 2.0000000000000013 -3.464101615137753 50.0
    vertex 2.8284271247461903 -2.8284271247461894 0.0
    vertex 2.0000000000000013 -3.464101615137753 0.0
  endloop
endfacet
facet normal -0.7071067811865478 0.7071067811865472 0.0
  outer loop
    vertex 2.8284271247461903 -2.8284271247461894 0.0
    vertex 2.0000000000000013 -3.464101615137753 50.0
    vertex 2.8284271247461903 -2.8284271247461894 50.0
  endloop
endfacet
facet normal -0.8660254037844389 0.4999999999999997 0.0
  outer loop
    vertex 3.4641016151377544 -1.9999999999999984 50.0
    vertex 2.8284271247461903 -2.8284271247461894 0.0
    vertex 2.8284271247461903 -2.8284271247461894 50.0
  endloop
endfacet
facet normal -0.7071067811865478 0.7071067811865472 0.0
  outer loop
    vertex 2.8284271247461903 -2.8284271247461894 0.0
    vertex 3.4641016151377544 -1.9999999999999984 50.0
    vertex 3.4641016151377544 -1.9999999999999984 0.0
  endloop
endfacet
facet normal -0.9659258262890682 0.25881904510252074 0.0
  outer loop
    vertex 3.863703305156273 -1.0352761804100823 50.0
    vertex 3.4641016151377544 -1.9999999999999984 0.0
    vertex 3.4641016151377544 -1.9999999999999984 50.0
  endloop
endfacet
facet normal -0.8660254037844389 0.4999999999999997 0.0
  outer loop
    vertex 3.4641016151377544 -1.9999999999999984 0.0
    vertex 3.863703305156273 -1.0352761804100823 50.0
    vertex 3.863703305156273 -1.0352761804100823 0.0
  endloop
endfacet
facet normal -1.0 5.346665937388143e-17 0.0
  outer loop
    vertex 3.9999999999999996 2.449293598294706e-16 50.0
    vertex 3.863703305156273 -1.0352761804100823 0.0
    vertex 3.863703305156273 -1.0352761804100823 50.0
  endloop
endfacet
facet normal -0.9659258262890682 0.25881904510252074 0.0
  outer loop
    vertex 3.863703305156273 -1.0352761804100823 0.0
    vertex 3.9999999999999996 2.449293598294706e-16 50.0
    vertex 3.9999999999999996 2.449293598294706e-16 0.0
  endloop
endfacet
facet normal -0.9659258262890682 -0.258819045102521 0.0
  outer loop
    vertex 3.863703305156273 1.0352761804100836 50.0
    vertex 3.9999999999999996 2.449293598294706e-16 0.0
    vertex 3.9999999999999996 2.449293598294706e-16 50.0
  endloop
endfacet
facet normal -1.0 5.346665937388143e-17 0.0
  outer loop
    vertex 3.9999999999999996 2.449293598294706e-16 0.0
    vertex 3.863703305156273 1.0352761804100836 50.0
    vertex 3.863703305156273 1.0352761804100836 0.0
  endloop
endfacet
facet normal -0.8660254037844386 -0.5000000000000001 0.0
  outer loop
    vertex 3.464101615137754 1.9999999999999998 50.0
    vertex 3.863703305156273 1.0352761804100836 0.0
    vertex 3.863703305156273 1.0352761804100836 50.0
  endloop
endfacet
facet normal -0.9659258262890682 -0.258819045102521 0.0
  outer loop
    vertex 3.863703305156273 1.0352761804100836 0.0
    vertex 3.464101615137754 1.9999999999999998 50.0
    vertex 3.464101615137754 1.9999999999999998 0.0
  endloop
endfacet
facet normal -0.7071067811865475 -0.7071067811865477 0.0
  outer loop
    vertex 2.82842712474619 2.82842712474619 50.0
    vertex 3.464101615137754 1.9999999999999998 0.0
    vertex 3.464101615137754 1.9999999999999998 50.0
  endloop
endfacet
facet normal -0.8660254037844386 -0.5000000000000001 0.0
  outer loop
    vertex 3.464101615137754 1.9999999999999998 0.0
    vertex 2.82842712474619 2.82842712474619 50.0
    vertex 2.82842712474619 2.82842712474619 0.0
  endloop
endfacet
facet normal -0.7071067811865475 -0.7071067811865477 0.0
  outer loop
    vertex 2.82842712474619 2.82842712474619 50.0
    vertex 1.9999999999999996 3.464101615137754 0.0
    vertex 2.82842712474619 2.82842712474619 0.0
  endloop
endfacet
facet normal -0.49999999999999967 -0.8660254037844388 0.0
  outer loop
    vertex 1.9999999999999996 3.464101615137754 0.0
    vertex 2.82842712474619 2.82842712474619 50.0
    vertex 1.9999999999999996 3.464101615137754 50.0
  endloop
endfacet
facet normal -0.49999999999999967 -0.8660254037844388 0.0
  outer loop
    vertex 1.9999999999999996 3.464101615137754 50.0
    vertex 1.035276180410083 3.863703305156272 0.0
    vertex 1.9999999999999996 3.464101615137754 0.0
  endloop
endfacet
facet normal -0.2588190451025207 -0.9659258262890682 0.0
  outer loop
    vertex 1.035276180410083 3.863703305156272 0.0
    vertex 1.9999999999999996 3.464101615137754 50.0
    vertex 1.035276180410083 3.863703305156272 50.0
  endloop
endfacet
facet normal 6.651463265917747e-31 -9.362714280159585e-31 1.0
  outer loop
    vertex -4.425738260270103 -1.1698290229067565 50.0
    vertex -4.425738260270103 1.23508815890676 50.0
    vertex -4.5819218879999974 0.03262956800000166 50.0
  endloop
endfacet
facet normal 6.651463265917747e-31 -9.362714280159585e-31 1.0
  outer loop
    vertex -4.425738260270103 1.23508815890676 50.0
    vertex -4.425738260270103 -1.1698290229067565 50.0
    vertex -3.967831033204561 -2.2903420479999963 50.0
  endloop
endfacet
facet normal 6.651463265917747e-31 -9.362714280159585e-31 1.0
  outer loop
    vertex -4.425738260270103 1.23508815890676 50.0
    vertex -3.967831033204561 -2.2903420479999963 50.0
    vertex -3.9999999999999996 -7.347880794884117e-16 50.0
  endloop
endfacet
facet normal 6.651463265917747e-31 -9.362714280159585e-31 1.0
  outer loop
    vertex -3.9999999999999996 -7.347880794884117e-16 50.0
    vertex -3.967831033204561 -2.2903420479999963 50.0
    vertex -3.863703305156272 -1.0352761804100858 50.0
  endloop
endfacet
facet normal 6.651463265917747e-31 -9.362714280159585e-31 1.0
  outer loop
    vertex -3.863703305156272 -1.0352761804100858 50.0
    vertex -3.967831033204561 -2.2903420479999963 50.0
    vertex -3.239405827600408 -3.252548396354942 50.0
  endloop
endfacet
facet normal 6.651463265917747e-31 -9.362714280159585e-31 1.0
  outer loop
    vertex -3.863703305156272 -1.0352761804100858 50.0
    vertex -3.239405827600408 -3.252548396354942 50.0
    vertex -3.464101615137753 -2.0000000000000013 50.0
  endloop
endfacet
facet normal 6.651463265917747e-31 -9.362714280159585e-31 1.0
  outer loop
    vertex -3.464101615137753 -2.0000000000000013 50.0
    vertex -3.239405827600408 -3.252548396354942 50.0
    vertex -2.8284271247461885 -2.828427124746191 50.0
  endloop
endfacet
facet normal 6.651463265917747e-31 -9.362714280159585e-31 1.0
  outer loop
    vertex -2.8284271247461885 -2.828427124746191 50.0
    vertex -3.239405827600408 -3.252548396354942 50.0
    vertex -2.2901036174400033 -3.9908752954523745 50.0
  endloop
endfacet
facet normal 6.651463265917747e-31 -9.362714280159585e-31 1.0
  outer loop
    vertex -2.8284271247461885 -2.828427124746191 50.0
    vertex -2.2901036174400033 -3.9908752954523745 50.0
    vertex -1.999999999999999 -3.4641016151377544 50.0
  endloop
endfacet
facet normal 6.651463265917747e-31 -9.362714280159585e-31 1.0
  outer loop
    vertex -1.999999999999999 -3.4641016151377544 50.0
    vertex -2.2901036174400033 -3.9908752954523745 50.0
    vertex -1.1846177795497022 -4.4550069872617 50.0
  endloop
endfacet
facet normal 6.651463265917747e-31 -9.362714280159585e-31 1.0
  outer loop
    vertex -1.999999999999999 -3.4641016151377544 50.0
    vertex -1.1846177795497022 -4.4550069872617 50.0
    vertex -1.0352761804100814 -3.863703305156273 50.0
  endloop
endfacet
facet normal 6.651463265917747e-31 -9.362714280159585e-31 1.0
  outer loop
    vertex -1.0352761804100814 -3.863703305156273 50.0
    vertex -1.1846177795497022 -4.4550069872617 50.0
    vertex 0.001714653119997746 -4.613313664 50.0
  endloop
endfacet
facet normal 6.651463265917747e-31 -9.362714280159585e-31 1.0
  outer loop
    vertex -1.0352761804100814 -3.863703305156273 50.0
    vertex 0.001714653119997746 -4.613313664 50.0
    vertex 4.898587196589412e-16 -3.999999999999999 50.0
  endloop
endfacet
facet normal 6.651463265917747e-31 -9.362714280159585e-31 1.0
  outer loop
    vertex 4.898587196589412e-16 -3.999999999999999 50.0
    vertex 0.001714653119997746 -4.613313664 50.0
    vertex 1.035276180410084 -3.863703305156272 50.0
  endloop
endfacet
facet normal 6.651463265917747e-31 -9.362714280159585e-31 1.0
  outer loop
    vertex 1.035276180410084 -3.863703305156272 50.0
    vertex 0.001714653119997746 -4.613313664 50.0
    vertex 1.1880470857896963 -4.455006987261702 50.0
  endloop
endfacet
facet normal 6.651463265917747e-31 -9.362714280159585e-31 1.0
  outer loop
    vertex 1.035276180410084 -3.863703305156272 50.0
    vertex 1.1880470857896963 -4.455006987261702 50.0
    vertex 2.0000000000000013 -3.464101615137753 50.0
  endloop
endfacet
facet normal 6.651463265917747e-31 -9.362714280159585e-31 1.0
  outer loop
    vertex 2.0000000000000013 -3.464101615137753 50.0
    vertex 1.1880470857896963 -4.455006987261702 50.0
    vertex 2.293532923679998 -3.990875295452377 50.0
  endloop
endfacet
facet normal 6.651463265917747e-31 -9.362714280159585e-31 1.0
  outer loop
    vertex 2.0000000000000013 -3.464101615137753 50.0
    vertex 2.293532923679998 -3.990875295452377 50.0
    vertex 2.8284271247461903 -2.8284271247461894 50.0
  endloop
endfacet
facet normal 6.651463265917747e-31 -9.362714280159585e-31 1.0
  outer loop
    vertex 2.8284271247461903 -2.8284271247461894 50.0
    vertex 2.293532923679998 -3.990875295452377 50.0
    vertex 3.2428351338404013 -3.2525483963549457 50.0
  endloop
endfacet
facet normal 6.651463265917747e-31 -9.362714280159585e-31 1.0
  outer loop
    vertex 2.8284271247461903 -2.8284271247461894 50.0
    vertex 3.2428351338404013 -3.2525483963549457 50.0
    vertex 3.4641016151377544 -1.9999999999999984 50.0
  endloop
endfacet
facet normal 6.651463265917747e-31 -9.362714280159585e-31 1.0
  outer loop
    vertex 3.4641016151377544 -1.9999999999999984 50.0
    vertex 3.2428351338404013 -3.2525483963549457 50.0
    vertex 3.9712603394445525 -2.2903420479999985 50.0
  endloop
endfacet
facet normal 6.651463265917747e-31 -9.362714280159585e-31 1.0
  outer loop
    vertex 3.4641016151377544 -1.9999999999999984 50.0
    vertex 3.9712603394445525 -2.2903420479999985 50.0
    vertex 3.863703305156273 -1.0352761804100823 50.0
  endloop
endfacet
facet normal 6.651463265917747e-31 -9.362714280159585e-31 1.0
  outer loop
    vertex 3.863703305156273 -1.0352761804100823 50.0
    vertex 3.9712603394445525 -2.2903420479999985 50.0
    vertex 3.9999999999999996 2.449293598294706e-16 50.0
  endloop
endfacet
facet normal 6.651463265917747e-31 -9.362714280159585e-31 1.0
  outer loop
    vertex 3.9999999999999996 2.449293598294706e-16 50.0
    vertex 3.9712603394445525 -2.2903420479999985 50.0
    vertex 4.429167566510099 -1.1698290229067607 50.0
  endloop
endfacet
facet normal 6.651463265917747e-31 -9.362714280159585e-31 1.0
  outer loop
    vertex -3.9999999999999996 -7.347880794884117e-16 50.0
    vertex -3.967831033204559 2.3556011839999993 50.0
    vertex -4.425738260270103 1.23508815890676 50.0
  endloop
endfacet
facet normal 6.651463265917747e-31 -9.362714280159585e-31 1.0
  outer loop
    vertex -3.967831033204559 2.3556011839999993 50.0
    vertex -3.9999999999999996 -7.347880794884117e-16 50.0
    vertex -3.8637033051562732 1.035276180410081 50.0
  endloop
endfacet
facet normal 6.651463265917747e-31 -9.362714280159585e-31 1.0
  outer loop
    vertex -3.967831033204559 2.3556011839999993 50.0
    vertex -3.8637033051562732 1.035276180410081 50.0
    vertex -3.2394058276004065 3.317807532354944 50.0
  endloop
endfacet
facet normal 6.651463265917747e-31 -9.362714280159585e-31 1.0
  outer loop
    vertex -3.2394058276004065 3.317807532354944 50.0
    vertex -3.8637033051562732 1.035276180410081 50.0
    vertex -3.464101615137756 1.9999999999999967 50.0
  endloop
endfacet
facet normal 6.651463265917747e-31 -9.362714280159585e-31 1.0
  outer loop
    vertex -3.2394058276004065 3.317807532354944 50.0
    vertex -3.464101615137756 1.9999999999999967 50.0
    vertex -2.8284271247461903 2.8284271247461885 50.0
  endloop
endfacet
facet normal 6.651463265917747e-31 -9.362714280159585e-31 1.0
  outer loop
    vertex -3.2394058276004065 3.317807532354944 50.0
    vertex -2.8284271247461903 2.8284271247461885 50.0
    vertex -2.2901036174400002 4.056134431452378 50.0
  endloop
endfacet
facet normal 6.651463265917747e-31 -9.362714280159585e-31 1.0
  outer loop
    vertex -2.2901036174400002 4.056134431452378 50.0
    vertex -2.8284271247461903 2.8284271247461885 50.0
    vertex -2.0000000000000018 3.4641016151377526 50.0
  endloop
endfacet
facet normal 6.651463265917747e-31 -9.362714280159585e-31 1.0
  outer loop
    vertex -2.2901036174400002 4.056134431452378 50.0
    vertex -2.0000000000000018 3.4641016151377526 50.0
    vertex -1.1846177795497017 4.520266123261702 50.0
  endloop
endfacet
facet normal 6.651463265917747e-31 -9.362714280159585e-31 1.0
  outer loop
    vertex -1.1846177795497017 4.520266123261702 50.0
    vertex -2.0000000000000018 3.4641016151377526 50.0
    vertex -1.035276180410086 3.8637033051562715 50.0
  endloop
endfacet
facet normal 6.651463265917747e-31 -9.362714280159585e-31 1.0
  outer loop
    vertex -1.1846177795497017 4.520266123261702 50.0
    vertex -1.035276180410086 3.8637033051562715 50.0
    vertex 0.0017146531199983353 4.678572799999999 50.0
  endloop
endfacet
facet normal 6.651463265917747e-31 -9.362714280159585e-31 1.0
  outer loop
    vertex 0.0017146531199983353 4.678572799999999 50.0
    vertex -1.035276180410086 3.8637033051562715 50.0
    vertex 0.0 3.999999999999999 50.0
  endloop
endfacet
facet normal 6.651463265917747e-31 -9.362714280159585e-31 1.0
  outer loop
    vertex 0.0017146531199983353 4.678572799999999 50.0
    vertex 0.0 3.999999999999999 50.0
    vertex 1.035276180410083 3.863703305156272 50.0
  endloop
endfacet
facet normal 6.651463265917747e-31 -9.362714280159585e-31 1.0
  outer loop
    vertex 0.0017146531199983353 4.678572799999999 50.0
    vertex 1.035276180410083 3.863703305156272 50.0
    vertex 1.1880470857897023 4.520266123261702 50.0
  endloop
endfacet
facet normal 6.651463265917747e-31 -9.362714280159585e-31 1.0
  outer loop
    vertex 1.1880470857897023 4.520266123261702 50.0
    vertex 1.035276180410083 3.863703305156272 50.0
    vertex 1.9999999999999996 3.464101615137754 50.0
  endloop
endfacet
facet normal 6.651463265917747e-31 -9.362714280159585e-31 1.0
  outer loop
    vertex 1.1880470857897023 4.520266123261702 50.0
    vertex 1.9999999999999996 3.464101615137754 50.0
    vertex 2.293532923680001 4.056134431452374 50.0
  endloop
endfacet
facet normal 6.651463265917747e-31 -9.362714280159585e-31 1.0
  outer loop
    vertex 2.293532923680001 4.056134431452374 50.0
    vertex 1.9999999999999996 3.464101615137754 50.0
    vertex 2.82842712474619 2.82842712474619 50.0
  endloop
endfacet
facet normal 6.651463265917747e-31 -9.362714280159585e-31 1.0
  outer loop
    vertex 2.293532923680001 4.056134431452374 50.0
    vertex 2.82842712474619 2.82842712474619 50.0
    vertex 3.2428351338404036 3.3178075323549425 50.0
  endloop
endfacet
facet normal 6.651463265917747e-31 -9.362714280159585e-31 1.0
  outer loop
    vertex 3.2428351338404036 3.3178075323549425 50.0
    vertex 2.82842712474619 2.82842712474619 50.0
    vertex 3.464101615137754 1.9999999999999998 50.0
  endloop
endfacet
facet normal 6.651463265917747e-31 -9.362714280159585e-31 1.0
  outer loop
    vertex 3.2428351338404036 3.3178075323549425 50.0
    vertex 3.464101615137754 1.9999999999999998 50.0
    vertex 3.971260339444556 2.3556011839999966 50.0
  endloop
endfacet
facet normal 6.651463265917747e-31 -9.362714280159585e-31 1.0
  outer loop
    vertex 3.971260339444556 2.3556011839999966 50.0
    vertex 3.464101615137754 1.9999999999999998 50.0
    vertex 3.863703305156273 1.0352761804100836 50.0
  endloop
endfacet
facet normal 6.651463265917747e-31 -9.362714280159585e-31 1.0
  outer loop
    vertex 3.971260339444556 2.3556011839999966 50.0
    vertex 3.863703305156273 1.0352761804100836 50.0
    vertex 3.9999999999999996 2.449293598294706e-16 50.0
  endloop
endfacet
facet normal 6.651463265917747e-31 -9.362714280159585e-31 1.0
  outer loop
    vertex 3.971260339444556 2.3556011839999966 50.0
    vertex 3.9999999999999996 2.449293598294706e-16 50.0
    vertex 4.4291675665101025 1.235088158906758 50.0
  endloop
endfacet
facet normal 6.651463265917747e-31 -9.362714280159585e-31 1.0
  outer loop
    vertex 4.4291675665101025 1.235088158906758 50.0
    vertex 3.9999999999999996 2.449293598294706e-16 50.0
    vertex 4.429167566510099 -1.1698290229067607 50.0
  endloop
endfacet
facet normal 6.651463265917747e-31 -9.362714280159585e-31 1.0
  outer loop
    vertex 4.4291675665101025 1.235088158906758 50.0
    vertex 4.429167566510099 -1.1698290229067607 50.0
    vertex 4.585351194239998 0.03262956800000055 50.0
  endloop
endfacet
endsolid spina conica 2
