<?xml version="1.0" encoding="utf-8"?>
<!-- Generator: Adobe Illustrator 17.0.2, SVG Export Plug-In . SVG Version: 6.00 Build 0)  -->
<!DOCTYPE svg PUBLIC "-//W3C//DTD SVG 1.1//EN" "http://www.w3.org/Graphics/SVG/1.1/DTD/svg11.dtd">
<svg version="1.1" id="Livello_1" xmlns="http://www.w3.org/2000/svg" xmlns:xlink="http://www.w3.org/1999/xlink" x="0px" y="0px"
	 width="841.89px" height="595.28px" viewBox="0 0 841.89 595.28" enable-background="new 0 0 841.89 595.28" xml:space="preserve">
<g>
	<path d="M181.777,458.724c-1.962-2.505-3.923-5.011-5.885-7.517c-0.748-1.634-1.386-3.33-2.261-4.893
		c-5.234-9.359-10.811-18.538-15.735-28.056c-12.805-24.75-21.435-50.994-25.55-78.509c-2.37-15.853-3.809-31.934-4.282-47.953
		c-0.339-11.514,1.328-23.127,2.599-34.641c3.034-27.479,10.723-53.701,21.892-78.96c12.956-29.298,30.227-55.821,52.414-78.844
		c10.864-11.273,22.92-21.518,35.17-31.312c28.513-22.796,60.896-38.321,96.085-47.57c15.949-4.192,32.323-7.346,48.704-9.141
		c13.932-1.527,28.181-1.019,42.236-0.319c12.701,0.632,25.506,1.864,37.95,4.385c25.691,5.206,50.509,13.437,73.765,25.719
		c11.229,5.93,21.997,12.73,32.974,19.136c10.562,8.569,21.123,17.137,31.685,25.706c4.432,4.432,8.864,8.865,13.296,13.297
		c4.961,5.505,9.923,11.01,14.884,16.515c4.707,6.442,9.413,12.883,14.12,19.325c0,0-0.128-0.173-0.128-0.173
		c0.673,1.493,1.171,3.097,2.045,4.461c13.194,20.587,23.721,42.453,31.19,65.733c10.883,33.922,15.522,68.57,13.216,104.285
		c-1.664,25.771-6.689,50.636-14.906,75.051c-13.742,40.83-36.332,76.153-66.217,106.84c-8.726,8.96-18.737,16.714-28.457,24.655
		c-26.71,21.82-57.197,36.899-89.921,46.816c-31.299,9.486-63.483,13.61-96.49,11.641c-26.181-1.562-51.523-6.256-76.312-14.488
		c-25.44-8.448-49.038-20.553-71.038-35.834c-4.029-2.798-8.155-5.456-12.236-8.179c-14.905-11.49-28.203-24.67-40.696-38.697
		C191.185,471.044,186.481,464.884,181.777,458.724z M550.769,202.133c0.397,2.305,0.422,4.55,1.186,6.505
		c2.684,6.872,4.508,14.436,8.672,20.308c12.653,17.841,30.215,25.342,52.157,21.853c10.95-1.741,20.495-6.836,27.735-14.63
		c10.658-11.472,15.882-25.37,14.341-41.612c-2.493-26.29-24.872-47.509-51.202-47.258c-19.192,0.182-34.365,8.309-45.039,24.548
		c-0.979,1.49-3.151,3.019-4.827,3.087c-7.984,0.322-15.991,0.265-23.981,0.033c-1.442-0.042-3.27-1.204-4.193-2.406
		c-6.703-8.732-15.925-8.756-22.626-0.092c-0.998,1.29-3.043,2.47-4.625,2.497c-11.994,0.207-23.993,0.147-35.99,0.067
		c-1.389-0.009-3.206-0.213-4.093-1.077c-9.382-9.146-18.615-18.444-27.826-27.638c6-5.906,11.558-11.377,17.16-16.89
		c1.032,0.698,2.44,1.538,3.725,2.537c20.331,15.807,49.18,14.183,67.383-3.696c14.147-13.894,18.724-31.058,13.981-50.512
		c-6.676-27.384-35.036-42.945-60.545-37.331c-15.607,3.434-27.562,12.187-34.935,26.224c-4.88,9.291-7.482,19.35-5.678,30.315
		c0.583,3.544,3.626,7.715-0.578,11.582c-6.003,5.522-11.519,11.571-17.439,17.187c-1.021,0.968-3.172,1.554-4.536,1.224
		c-10.675-2.587-19.093,5.463-16.784,15.995c0.369,1.682-0.276,4.273-1.445,5.495c-7.944,8.304-16.077,16.435-24.357,24.405
		c-1.345,1.294-3.716,2.099-5.629,2.13c-11.661,0.192-23.327,0.107-34.991,0.079c-1.266-0.003-2.531-0.234-3.694-0.35
		c0-8.111,0-15.853,0-23.402c3.136-0.506,5.902-0.871,8.635-1.407c10.597-2.077,19.934-6.921,27.147-14.794
		c10.183-11.116,14.988-24.455,13.875-39.745c-1.127-15.487-7.729-28.182-20.193-37.207c-18.762-13.586-38.648-14.047-58.571-2.56
		c-14.549,8.389-22.231,21.894-23.9,38.129c-2.152,20.93,6.183,37.502,23.8,49.316c1.4,0.939,2.825,3.017,2.871,4.606
		c0.27,9.314,0.132,18.64,0.132,27.859c-12.082,4.431-11.521,20.839-1.913,25.2c1.014,0.46,1.819,2.528,1.834,3.86
		c0.14,11.996,0.152,23.995-0.001,35.99c-0.021,1.61-0.754,3.608-1.859,4.743c-9.059,9.31-18.284,18.458-27.329,27.524
		c-5.914-5.877-11.689-11.617-17.551-17.443c11.929-13.009,15.886-28.347,12.74-45.83c-4.181-23.236-25.262-40.695-49.087-41.351
		c-16.94-0.466-31.148,6.421-41.853,19.525c-9.665,11.83-12.87,25.892-10.554,40.77c2.24,14.394,9.763,26.105,21.969,34.194
		c10.323,6.841,21.673,10.715,34.364,8.305c6.215-1.18,11.58-1.038,15.98,4.931c3.616,4.906,8.69,8.717,12.847,13.261
		c1.034,1.13,1.604,3.298,1.392,4.853c-1.276,9.349,4.386,17.682,12.769,16.583c6.286-0.824,9.666,1.726,13.255,5.748
		c3.101,3.475,6.199,7.126,9.923,9.842c10.958,7.994,15.004,18.321,13.252,31.753c-0.974,7.47-0.175,15.172-0.175,22.732
		c-8.764,0-16.834,0-24.649,0c-0.543-3.952-0.667-7.618-1.584-11.074c-5.738-21.635-22.184-35.864-43.159-38.358
		c-18.073-2.148-33.921,3.283-46.205,17.72c-7.913,9.299-11.89,19.966-12.28,31.84c-0.512,15.572,5.031,28.882,16.73,39.474
		c14.017,12.691,30.231,16.543,48.381,11.798c12.881-3.368,23.074-10.678,30.245-22.093c0.88-1.4,2.864-2.93,4.378-2.973
		c9.481-0.271,18.973-0.137,28.34-0.137c2.231,4.424,4.809,8.191,9.875,8.958c6.007,0.909,10.912-0.867,14.527-6.086
		c0.929-1.342,2.924-2.72,4.454-2.749c11.993-0.224,23.993-0.172,35.989-0.056c1.322,0.013,2.966,0.626,3.9,1.536
		c9.419,9.177,18.721,18.475,27.712,27.397c-5.693,5.836-11.142,11.423-16.666,17.086c-0.817-0.352-1.871-0.548-2.582-1.15
		c-11.023-9.339-23.881-12.899-38.057-11.736c-13.525,1.11-25.047,7.071-33.807,17.156c-9.5,10.937-13.811,24.097-12.53,38.771
		c1.179,13.506,6.729,25.211,16.833,33.969c12.8,11.096,27.917,15.223,44.934,11.949c27.417-5.274,45.743-32.344,40.171-59.834
		c-0.744-3.672-0.806-6.865,2.815-9.853c5.501-4.539,10.124-10.126,15.39-14.974c1.232-1.134,3.668-1.778,5.341-1.479
		c9.537,1.704,18.098-4.498,16.113-13.098c-1.421-6.153,1.811-9.02,5.347-12.425c3.72-3.582,7.825-6.914,10.873-11.016
		c7.636-10.277,17.289-14.208,30.052-12.557c7.8,1.009,15.838,0.186,23.747,0.186c0,8.76,0,16.833,0,24.893
		c-13.97,0.108-29.195,7.627-38.095,19.095c-10.191,13.131-13.695,27.815-10.082,43.899c6.054,26.945,32.632,43.935,59.478,39.242
		c24.557-4.292,45.495-27.762,42.039-56.765c-1.964-16.485-10.593-28.189-23.177-37.884c-1.413-1.089-2.784-3.217-2.843-4.91
		c-0.291-8.321-0.268-16.663-0.008-24.986c0.047-1.52,1.349-3.544,2.674-4.392c8.235-5.27,8.222-16.933,0.013-22.239
		c-1.401-0.906-2.639-3.19-2.688-4.874c-0.263-8.99,0.518-18.051-0.302-26.974c-0.838-9.119,1.942-15.681,8.937-21.565
		c7.192-6.05,13.437-13.225,19.703-19.513c6.086,6.111,11.687,11.735,17.313,17.384c-11.811,14.369-15.882,29.549-12.477,45.325
		c6.19,28.672,33.23,47.267,63.31,39.905c28.506-6.976,43.91-35.13,38-61.083c-6.542-28.724-33.636-45.414-62.574-39.4
		c-1.379,0.287-3.466-0.191-4.458-1.125c-5.577-5.252-10.823-10.856-16.384-16.127c-2.675-2.535-4.796-4.764-2.406-8.694
		c0.559-0.919,0.208-2.653-0.194-3.855c-2.878-8.602-6.28-10.865-16.508-10.281c-1.766,0.101-4.086-0.658-5.339-1.864
		c-8.282-7.97-16.367-16.146-24.445-24.326c-0.981-0.993-2.172-2.401-2.186-3.63c-0.157-13.27-0.098-26.542-0.098-40.018
		C535.592,202.133,542.875,202.133,550.769,202.133z"/>
	<path fill="#FFFFFF" d="M645.84,135.092c-4.707-6.442-9.413-12.883-14.12-19.325C636.427,122.208,641.134,128.65,645.84,135.092z"
		/>
	<path fill="#FFFFFF" d="M181.777,458.724c4.704,6.16,9.408,12.32,14.112,18.48C191.185,471.044,186.481,464.884,181.777,458.724z"
		/>
	<path fill="#FFFFFF" d="M616.836,99.251c-4.432-4.432-8.864-8.865-13.296-13.297C607.972,90.387,612.404,94.819,616.836,99.251z"/>
	<path d="M411.844,201.919c11.163,0,22.328-0.134,33.485,0.115c2.199,0.049,4.927,1.002,6.461,2.507
		c15.694,15.402,31.232,30.964,46.672,46.621c1.323,1.341,2.296,3.679,2.309,5.562c0.156,22.824,0.155,45.65,0.001,68.474
		c-0.013,1.887-0.958,4.236-2.278,5.573c-15.911,16.128-31.942,32.139-48.064,48.056c-1.237,1.222-3.397,2.122-5.134,2.133
		c-22.658,0.14-45.317,0.14-67.974,0c-1.738-0.011-3.9-0.906-5.136-2.128c-16.232-16.042-32.36-32.19-48.406-48.419
		c-1.121-1.134-1.948-3.115-1.956-4.707c-0.125-22.824-0.125-45.65,0.001-68.474c0.009-1.589,0.854-3.563,1.977-4.699
		c16.047-16.227,32.169-32.382,48.421-48.403c1.321-1.302,3.719-2.082,5.634-2.115C389.184,201.821,400.514,201.919,411.844,201.919
		z"/>
	<path d="M295.594,302.396c-3.931-4.122-7.117-7.462-10.128-10.619c3.241-3.248,6.627-6.641,10.128-10.15
		C295.594,288.155,295.594,294.758,295.594,302.396z"/>
	<path d="M420.971,407.184c-3.334,3.292-6.675,6.591-9.788,9.665c-2.794-2.817-6.17-6.222-9.584-9.665
		C407.987,407.184,414.59,407.184,420.971,407.184z"/>
	<path d="M322.172,202.14c4.845,0,9.423,0,13.516,0c-4.491,4.485-9.122,9.11-13.516,13.498
		C322.172,211.914,322.172,207.259,322.172,202.14z"/>
	<path d="M335.677,380.843c-4.097,0-8.678,0-13.6,0c0-4.824,0-9.52,0-13.605C326.439,371.601,331.069,376.233,335.677,380.843z"/>
	<path d="M500.618,367.956c0,3.383,0,7.988,0,12.841c-4.851,0-9.457,0-13.064,0C491.716,376.706,496.424,372.078,500.618,367.956z"
		/>
	<path d="M402.32,174.805c3.251-3.372,6.303-6.538,9.51-9.864c2.989,3.253,6.035,6.568,9.063,9.864
		C415.001,174.805,408.785,174.805,402.32,174.805z"/>
	<path d="M528.104,280.729c3.614,3.648,6.64,6.703,10.068,10.163c-3.624,2.87-7.193,5.696-10.068,7.972
		C528.104,294.239,528.104,287.944,528.104,280.729z"/>
	<path d="M500.646,202.236c0,4.691,0,8.909,0,12.851c-4.333-4.242-8.692-8.509-13.127-12.851
		C491.657,202.236,495.973,202.236,500.646,202.236z"/>
</g>
<g>
	<line fill="none" stroke="#000000" stroke-width="0.3" x1="91.986" y1="-55.823" x2="91.986" y2="-19.823"/>
	<line fill="none" stroke="#000000" stroke-width="0.3" x1="37.986" y1="-1.823" x2="73.986" y2="-1.823"/>
	<line fill="none" stroke="#000000" stroke-width="0.3" x1="37.986" y1="597.103" x2="73.986" y2="597.103"/>
	<line fill="none" stroke="#000000" stroke-width="0.3" x1="91.986" y1="651.103" x2="91.986" y2="615.103"/>
	<line fill="none" stroke="#000000" stroke-width="0.3" x1="749.904" y1="-55.823" x2="749.904" y2="-19.823"/>
	<line fill="none" stroke="#000000" stroke-width="0.3" x1="803.904" y1="-1.823" x2="767.904" y2="-1.823"/>
	<line fill="none" stroke="#000000" stroke-width="0.3" x1="803.904" y1="597.103" x2="767.904" y2="597.103"/>
	<line fill="none" stroke="#000000" stroke-width="0.3" x1="749.904" y1="651.103" x2="749.904" y2="615.103"/>
</g>
<ellipse fill="#FFFFFF" stroke="#FFFFFF" stroke-width="0.3" cx="604" cy="211.5" rx="30" ry="22.5"/>
</svg>
